Coordinates
version=1
nRows=14
nColumns=24
inDegrees=yes

Units are S.I. units (second, meters, Newtons, ...)
Angles are in degrees.

endheader
time	pelvis_tilt	pelvis_list	pelvis_rotation	pelvis_tx	pelvis_ty	pelvis_tz	hip_flexion_r	hip_adduction_r	hip_rotation_r	knee_angle_r	ankle_angle_r	subtalar_angle_r	mtp_angle_r	hip_flexion_l	hip_adduction_l	hip_rotation_l	knee_angle_l	ankle_angle_l	subtalar_angle_l	mtp_angle_l	lumbar_extension	lumbar_bending	lumbar_rotation
      1.12883333	      9.59420460	      4.58526748	     -2.54361123	      0.14668018	      1.01207334	      0.35979667	    -18.02550587	     -7.10977105	     -7.26875541	    -41.83072988	    -21.71647469	     -5.26284831	     37.00077471	      6.77817635	     10.89488010	      5.89989036	    -17.24956562	     -0.16447516	    -18.83320980	     -4.48373407	    -21.71794710	     -0.29087525	      0.57634105
      1.13300000	      9.64930332	      4.74878921	     -2.61368300	      0.15211781	      1.01178417	      0.35942714	    -17.49036084	     -7.46337026	     -7.29050452	    -43.16051944	    -22.95331085	     -5.49796846	     36.00193468	      6.69381996	     11.13438572	      5.71986834	    -17.88305944	      0.46345362	    -18.54459794	     -4.87031235	    -21.77233479	     -0.46750567	      0.45812033
      1.13716667	      9.75529759	      4.96604657	     -2.73526727	      0.15755224	      1.01160469	      0.35908334	    -16.98791469	     -7.89602474	     -7.28639917	    -44.49101072	    -24.15024053	     -5.83356626	     35.84143095	      6.44872417	     11.45473096	      5.71720456	    -18.27487153	      0.83691467	    -18.72072122	     -4.90230284	    -21.88298833	     -0.73314088	      0.35188452
      1.14133333	      9.84987390	      5.10989683	     -2.87536216	      0.16290782	      1.01147031	      0.35882279	    -16.45196358	     -8.22620042	     -7.17445166	    -45.80257706	    -25.33279186	     -6.16483286	     29.92375625	      6.24757525	     11.66851248	      5.53903070	    -18.73481312	      1.35418876	    -18.63454054	     -6.16437862	    -21.99053716	     -0.90056492	      0.27360863
      1.14550000	      9.90021577	      5.28600496	     -2.93641119	      0.16827604	      1.01130411	      0.35841307	    -15.88329519	     -8.58360954	     -7.17706479	    -47.07954602	    -26.50754905	     -6.53211651	     29.80313144	      6.04140623	     11.94006671	      5.56142841	    -19.10039286	      1.79242872	    -18.71474617	     -6.14930630	    -22.04819990	     -1.09124404	      0.13855021
      1.14966667	      9.97364933	      5.41350799	     -3.02770017	      0.17361501	      1.01121758	      0.35808015	    -15.32880806	     -8.88561311	     -7.11088285	    -48.31152015	    -27.69257226	     -6.85251439	     28.56714199	      5.82099422	     12.12554750	      5.38116674	    -19.48616014	      2.39416612	    -18.40978260	     -6.14836443	    -22.11324304	     -1.20005754	     -0.00426428
      1.15383333	     10.06830923	      5.61116906	     -3.16946409	      0.17895317	      1.01118563	      0.35777347	    -14.76746314	     -9.28420089	     -7.02323538	    -49.56129061	    -28.70090424	     -7.21736999	     28.37738825	      5.48275969	     12.41230520	      5.37326290	    -19.64609353	      2.72784172	    -18.55933874	     -6.14376096	    -22.19989844	     -1.43109050	     -0.10756116
      1.15800000	     10.13847964	      5.72449904	     -3.27947587	      0.18421884	      1.01120355	      0.35747248	    -14.17992083	     -9.55234844	     -6.88895424	    -50.76401780	    -29.63043254	     -7.52349479	     20.67013028	      5.18837111	     12.59510906	      5.30945428	    -19.86145585	      3.14754281	    -18.56546293	     -6.34054665	    -22.29122780	     -1.55186552	     -0.18447145
      1.16216667	     10.24075170	      5.88732809	     -3.40867356	      0.18950419	      1.01128678	      0.35717433	    -13.62494022	     -9.89448239	     -6.77962766	    -51.92253210	    -30.51833623	     -7.83268580	     20.58628760	      4.80837708	     12.83309555	      5.26080644	    -19.95312278	      3.49272413	    -18.60224844	     -6.33141656	    -22.38573796	     -1.72525725	     -0.31925269
      1.16633333	     10.32030442	      6.01651887	     -3.52998554	      0.19476785	      1.01141173	      0.35688618	    -13.04437891	    -10.18032434	     -6.64298978	    -53.03055385	    -31.33712128	     -8.21132405	     20.42472571	      4.43626928	     13.03003849	      5.21297796	    -20.01653695	      3.83158376	    -18.61530973	     -6.32438300	    -22.46586664	     -1.85922537	     -0.44343273
      1.17050000	     10.39396252	      6.08332967	     -3.64543400	      0.19996982	      1.01158908	      0.35663624	    -12.45091810	    -10.36617279	     -6.44820063	    -54.10503959	    -31.94256832	     -8.49794764	     13.81903141	      4.07359653	     13.14891999	      5.11852514	    -20.09672015	      4.22665241	    -18.52985358	     -6.43112519	    -22.54869279	     -1.93188001	     -0.50827662
      1.17466667	     10.47840413	      6.19875710	     -3.76563746	      0.20519486	      1.01180333	      0.35634430	    -11.87109922	    -10.62545285	     -6.29818106	    -55.13438060	    -32.48577210	     -8.80618545	     13.74623120	      3.64684806	     13.33315705	      5.10616205	    -20.05638441	      4.52282555	    -18.55877071	     -6.42317411	    -22.63255297	     -2.03339490	     -0.65782155
      1.17883333	     10.52050881	      6.23740458	     -3.85948754	      0.21039852	      1.01206737	      0.35606814	    -11.25949980	    -10.75811260	     -6.10995041	    -56.08128379	    -32.97459505	     -9.24577997	     13.32288000	      3.25619882	     13.42651904	      5.09821744	    -20.01924005	      4.84184357	    -18.56084388	     -6.41909207	    -22.66921637	     -2.03486212	     -0.82275090
      1.18300000	     10.61982090	      6.33379118	     -3.99394102	      0.21558137	      1.01240769	      0.35583012	    -10.69116095	    -10.97568295	     -5.91633473	    -57.02112279	    -33.17046448	     -9.48924120	     13.13465367	      2.77611669	     13.58091784	      5.04632099	    -19.89080218	      5.06633383	    -18.55513834	     -6.41489586	    -22.77671230	     -2.14592336	     -0.93501908
